<?xml version="1.0" standalone="no"?><!DOCTYPE svg PUBLIC "-//W3C//DTD SVG 1.1//EN" "http://www.w3.org/Graphics/SVG/1.1/DTD/svg11.dtd"><svg t="1525325846843" class="icon" style="" viewBox="0 0 1024 1024" version="1.1" xmlns="http://www.w3.org/2000/svg" p-id="5680" xmlns:xlink="http://www.w3.org/1999/xlink" width="200" height="200"><defs><style type="text/css"></style></defs><path d="M171.208466 604.28642h43.343915v326.162963h-43.343915zM171.208466 102.2194h43.343915v162.900882h-43.343915zM507.846208 811.976014h43.343915v118.834568h-43.343915zM507.846208 102.2194h43.343915v378.89806h-43.343915zM844.483951 543.966138h43.343915v386.844444h-43.343915zM844.483951 102.2194h43.343915V234.779541h-43.343915zM952.48254 375.647266c0 47.678307-38.648325 86.326631-86.326632 86.326632s-86.326631-38.648325-86.326631-86.326632 38.648325-86.326631 86.326631-86.326631 86.326631 38.648325 86.326632 86.326631M615.844797 654.493122c0 47.678307-38.648325 86.326631-86.326631 86.326631s-86.326631-38.648325-86.326632-86.326631 38.648325-86.326631 86.326632-86.326632 86.326631 38.648325 86.326631 86.326632M279.207055 430.910758c0 47.678307-38.648325 86.326631-86.326632 86.326632s-86.326631-38.648325-86.326631-86.326632 38.648325-86.326631 86.326631-86.326631 86.326631 38.648325 86.326632 86.326631" fill="#ffffff" p-id="5681"></path></svg>